<svg id="visual" viewBox="0 0 900 600" width="900" height="600" xmlns="http://www.w3.org/2000/svg" xmlns:xlink="http://www.w3.org/1999/xlink" version="1.1"><rect x="0" y="0" width="900" height="600" fill="#fc544b"></rect><path d="M0 449L11.5 454.3C23 459.7 46 470.3 69 471.7C92 473 115 465 138.2 459.2C161.3 453.3 184.7 449.7 207.8 445.3C231 441 254 436 277 444.8C300 453.7 323 476.3 346 478.2C369 480 392 461 415.2 452.5C438.3 444 461.7 446 484.8 457.8C508 469.7 531 491.3 554 503.8C577 516.3 600 519.7 623 511C646 502.3 669 481.7 692.2 481.2C715.3 480.7 738.7 500.3 761.8 510.3C785 520.3 808 520.7 831 511.5C854 502.3 877 483.7 888.5 474.3L900 465L900 601L888.5 601C877 601 854 601 831 601C808 601 785 601 761.8 601C738.7 601 715.3 601 692.2 601C669 601 646 601 623 601C600 601 577 601 554 601C531 601 508 601 484.8 601C461.7 601 438.3 601 415.2 601C392 601 369 601 346 601C323 601 300 601 277 601C254 601 231 601 207.8 601C184.7 601 161.3 601 138.2 601C115 601 92 601 69 601C46 601 23 601 11.5 601L0 601Z" fill="#ffffff" stroke-linecap="round" stroke-linejoin="miter"></path></svg>